<mxfile host="app.diagrams.net" modified="2024-04-08T05:53:45.963Z" agent="Mozilla/5.0 (Windows NT 10.0; Win64; x64) AppleWebKit/537.36 (KHTML, like Gecko) Chrome/123.0.0.0 Safari/537.36" version="24.2.2" etag="BASSPQourqZ_HnIJ2z84" type="github">
  <diagram name="페이지-1" id="P92IDIxB-07LZbA0uTBh">
    <mxGraphModel>
      <root>
        <mxCell id="0" />
        <mxCell id="1" parent="0" />
      </root>
    </mxGraphModel>
  </diagram>
</mxfile>
